REM DIRINDEX 1\2\6,1\2\7,1\2\8,1\2\9,1\3\10,1\3\11,1\4\12,1\4\13,1\4\14,1\5\15,1\5\16,1\5\17
REM DIRNAME cjc029,folder01,folder02,folder03,folder04,folder05,folder06,folder07,folder08,folder09,folder10,folder11,folder12,folder13,folder14,folder15,folder16
TITLE ""
FILE "1400_3_sec09_0868_0884.mp3" MP3
  TRACK 01 AUDIO
    TITLE "0:"
    INDEX 01 00:00:00
  TRACK 02 AUDIO
    TITLE "17:cjc029_6171"
    INDEX 01 00:00:17
  TRACK 03 AUDIO
    TITLE "0:"
    INDEX 01 00:01:26
  TRACK 04 AUDIO
    TITLE "16:cjc029_6172"
    INDEX 01 00:01:30
  TRACK 05 AUDIO
    TITLE "0:"
    INDEX 01 00:02:51
  TRACK 06 AUDIO
    TITLE "17:cjc029_6173"
    INDEX 01 00:03:33
  TRACK 07 AUDIO
    TITLE "0:"
    INDEX 01 00:05:30
  TRACK 08 AUDIO
    TITLE "16:cjc029_6174"
    INDEX 01 00:05:36
  TRACK 09 AUDIO
    TITLE "0:"
    INDEX 01 00:06:37
  TRACK 10 AUDIO
    TITLE "17:cjc029_6175"
    INDEX 01 00:07:21
  TRACK 11 AUDIO
    TITLE "0:"
    INDEX 01 00:08:44
  TRACK 12 AUDIO
    TITLE "16:cjc029_6176"
    INDEX 01 00:08:52
  TRACK 13 AUDIO
    TITLE "0:"
    INDEX 01 00:09:61
  TRACK 14 AUDIO
    TITLE "17:cjc029_6177"
    INDEX 01 00:10:45
  TRACK 15 AUDIO
    TITLE "0:"
    INDEX 01 00:12:20
  TRACK 16 AUDIO
    TITLE "16:cjc029_6178"
    INDEX 01 00:12:26
  TRACK 17 AUDIO
    TITLE "0:"
    INDEX 01 00:13:41
  TRACK 18 AUDIO
    TITLE "17:cjc029_6179"
    INDEX 01 00:14:21
  TRACK 19 AUDIO
    TITLE "0:"
    INDEX 01 00:15:23
  TRACK 20 AUDIO
    TITLE "16:cjc029_6180"
    INDEX 01 00:15:28
  TRACK 21 AUDIO
    TITLE "0:"
    INDEX 01 00:16:34
  TRACK 22 AUDIO
    TITLE "17:cjc029_6181"
    INDEX 01 00:17:18
  TRACK 23 AUDIO
    TITLE "0:"
    INDEX 01 00:18:07
  TRACK 24 AUDIO
    TITLE "16:cjc029_6182"
    INDEX 01 00:18:11
  TRACK 25 AUDIO
    TITLE "0:"
    INDEX 01 00:19:38
  TRACK 26 AUDIO
    TITLE "17:cjc029_6183"
    INDEX 01 00:20:28
  TRACK 27 AUDIO
    TITLE "0:"
    INDEX 01 00:21:49
  TRACK 28 AUDIO
    TITLE "16:cjc029_6184"
    INDEX 01 00:21:57
  TRACK 29 AUDIO
    TITLE "0:"
    INDEX 01 00:22:58
  TRACK 30 AUDIO
    TITLE "17:cjc029_6185"
    INDEX 01 00:23:44
  TRACK 31 AUDIO
    TITLE "0:"
    INDEX 01 00:24:57
  TRACK 32 AUDIO
    TITLE "16:cjc029_6186"
    INDEX 01 00:24:67
  TRACK 33 AUDIO
    TITLE "0:"
    INDEX 01 00:25:68
  TRACK 34 AUDIO
    TITLE "17:cjc029_6187"
    INDEX 01 00:26:52
  TRACK 35 AUDIO
    TITLE "0:"
    INDEX 01 00:27:63
  TRACK 36 AUDIO
    TITLE "16:cjc029_6188"
    INDEX 01 00:27:65
  TRACK 37 AUDIO
    TITLE "0:"
    INDEX 01 00:28:74
  TRACK 38 AUDIO
    TITLE "17:cjc029_6189"
    INDEX 01 00:29:58
  TRACK 39 AUDIO
    TITLE "0:"
    INDEX 01 00:31:02
  TRACK 40 AUDIO
    TITLE "16:cjc029_6190"
    INDEX 01 00:31:12
  TRACK 41 AUDIO
    TITLE "0:"
    INDEX 01 00:32:25
  TRACK 42 AUDIO
    TITLE "17:cjc029_6191"
    INDEX 01 00:33:13
  TRACK 43 AUDIO
    TITLE "0:"
    INDEX 01 00:34:18
  TRACK 44 AUDIO
    TITLE "16:cjc029_6192"
    INDEX 01 00:34:24
  TRACK 45 AUDIO
    TITLE "0:"
    INDEX 01 00:35:25
  TRACK 46 AUDIO
    TITLE "17:cjc029_6193"
    INDEX 01 00:36:09
  TRACK 47 AUDIO
    TITLE "0:"
    INDEX 01 00:37:32
  TRACK 48 AUDIO
    TITLE "16:cjc029_6194"
    INDEX 01 00:37:38
  TRACK 49 AUDIO
    TITLE "0:"
    INDEX 01 00:38:45
  TRACK 50 AUDIO
    TITLE "17:cjc029_6195"
    INDEX 01 00:39:27
  TRACK 51 AUDIO
    TITLE "0:"
    INDEX 01 00:40:60
  TRACK 52 AUDIO
    TITLE "16:cjc029_6196"
    INDEX 01 00:40:68
  TRACK 53 AUDIO
    TITLE "0:"
    INDEX 01 00:41:67
  TRACK 54 AUDIO
    TITLE "17:cjc029_6197"
    INDEX 01 00:42:51
  TRACK 55 AUDIO
    TITLE "0:"
    INDEX 01 00:44:05
  TRACK 56 AUDIO
    TITLE "16:cjc029_6198"
    INDEX 01 00:44:11
  TRACK 57 AUDIO
    TITLE "0:"
    INDEX 01 00:45:20
  TRACK 58 AUDIO
    TITLE "17:cjc029_6199"
    INDEX 01 00:46:06
  TRACK 59 AUDIO
    TITLE "0:"
    INDEX 01 00:47:13
  TRACK 60 AUDIO
    TITLE "16:cjc029_6200"
    INDEX 01 00:47:21
  TRACK 61 AUDIO
    TITLE "0:"
    INDEX 01 00:48:28
  TRACK 62 AUDIO
    TITLE "17:cjc029_6201"
    INDEX 01 00:49:16
  TRACK 63 AUDIO
    TITLE "0:"
    INDEX 01 00:50:21
  TRACK 64 AUDIO
    TITLE "16:cjc029_6202"
    INDEX 01 00:50:27
  TRACK 65 AUDIO
    TITLE "0:"
    INDEX 01 00:51:42
  TRACK 66 AUDIO
    TITLE "17:cjc029_6203"
    INDEX 01 00:52:28
  TRACK 67 AUDIO
    TITLE "0:"
    INDEX 01 00:53:37
  TRACK 68 AUDIO
    TITLE "16:cjc029_6204"
    INDEX 01 00:53:43
  TRACK 69 AUDIO
    TITLE "0:"
    INDEX 01 00:54:52
